v 0.0 0.0 0.0
v 0.06 0.0 0
v 0.0570633909777 0.0185410196625 0
v 0.0485410196625 0.0352671151375 0
v 0.0352671151375 0.0485410196625 0
v 0.0185410196625 0.0570633909777 0
v 3.67394039744e-18 0.06 0
v -0.0185410196625 0.0570633909777 0
v -0.0352671151375 0.0485410196625 0
v -0.0485410196625 0.0352671151375 0
v -0.0570633909777 0.0185410196625 0
v -0.06 7.34788079488e-18 0
v -0.0570633909777 -0.0185410196625 0
v -0.0485410196625 -0.0352671151375 0
v -0.0352671151375 -0.0485410196625 0
v -0.0185410196625 -0.0570633909777 0
v -1.10218211923e-17 -0.06 0
v 0.0185410196625 -0.0570633909777 0
v 0.0352671151375 -0.0485410196625 0
v 0.0485410196625 -0.0352671151375 0
v 0.0570633909777 -0.0185410196625 0
vn 0 0 1
vn 0 0 1
vn 0 0 1
vn 0 0 1
vn 0 0 1
vn 0 0 1
vn 0 0 1
vn 0 0 1
vn 0 0 1
vn 0 0 1
vn 0 0 1
vn 0 0 1
vn 0 0 1
vn 0 0 1
vn 0 0 1
vn 0 0 1
vn 0 0 1
vn 0 0 1
vn 0 0 1
vn 0 0 1
vn 0 0 1
vt 0.5 0.5 
vt 1.0 0.5 
vt 0.975528258148 0.654508497187 
vt 0.904508497187 0.793892626146 
vt 0.793892626146 0.904508497187 
vt 0.654508497187 0.975528258148 
vt 0.5 1.0 
vt 0.345491502813 0.975528258148 
vt 0.206107373854 0.904508497187 
vt 0.0954915028125 0.793892626146 
vt 0.0244717418524 0.654508497187 
vt 0.0 0.5 
vt 0.0244717418524 0.345491502813 
vt 0.0954915028125 0.206107373854 
vt 0.206107373854 0.0954915028125 
vt 0.345491502813 0.0244717418524 
vt 0.5 0.0 
vt 0.654508497187 0.0244717418524 
vt 0.793892626146 0.0954915028125 
vt 0.904508497187 0.206107373854 
vt 0.975528258148 0.345491502813 
vt 1.0 0.5 
f 1/1/1 2/2/2 3/3/3
f 1/1/1 3/3/3 4/4/4
f 1/1/1 4/4/4 5/5/5
f 1/1/1 5/5/5 6/6/6
f 1/1/1 6/6/6 7/7/7
f 1/1/1 7/7/7 8/8/8
f 1/1/1 8/8/8 9/9/9
f 1/1/1 9/9/9 10/10/10
f 1/1/1 10/10/10 11/11/11
f 1/1/1 11/11/11 12/12/12
f 1/1/1 12/12/12 13/13/13
f 1/1/1 13/13/13 14/14/14
f 1/1/1 14/14/14 15/15/15
f 1/1/1 15/15/15 16/16/16
f 1/1/1 16/16/16 17/17/17
f 1/1/1 17/17/17 18/18/18
f 1/1/1 18/18/18 19/19/19
f 1/1/1 19/19/19 20/20/20
f 1/1/1 20/20/20 21/21/21
f 1/1/1 21/21/21 2/2/2
